<svg width="47" height="47" viewBox="0 0 47 47" fill="none" xmlns="http://www.w3.org/2000/svg">
<path fill-rule="evenodd" clip-rule="evenodd" d="M8.20412 11.1416C8.75501 10.5907 9.50218 10.2812 10.2812 10.2812H24.9688C25.3583 10.2812 25.7319 10.436 26.0073 10.7114L33.3511 18.0552C33.6265 18.3306 33.7812 18.7042 33.7812 19.0938V39.6562C33.7812 40.4353 33.4718 41.1825 32.9209 41.7334C32.37 42.2843 31.6228 42.5938 30.8438 42.5938H10.2812C9.50218 42.5938 8.75501 42.2843 8.20412 41.7334C7.65324 41.1825 7.34375 40.4353 7.34375 39.6562V13.2188C7.34375 12.4397 7.65324 11.6925 8.20412 11.1416ZM24.3604 13.2188L10.2813 13.2188L10.2812 39.6562H30.8438V19.7021L24.3604 13.2188Z" fill="#3AA531"/>
<path fill-rule="evenodd" clip-rule="evenodd" d="M14.0791 5.26662C14.63 4.71574 15.3772 4.40625 16.1562 4.40625H30.8438C31.2333 4.40625 31.6069 4.56099 31.8823 4.83644L39.2261 12.1802C39.5015 12.4556 39.6562 12.8292 39.6562 13.2188V33.7812C39.6562 34.5603 39.3468 35.3075 38.7959 35.8584C38.245 36.4093 37.4978 36.7188 36.7188 36.7188H32.3125C31.5013 36.7188 30.8438 36.0612 30.8438 35.25C30.8438 34.4388 31.5013 33.7812 32.3125 33.7812H36.7188V13.8271L30.2354 7.34375L16.1563 7.34375L16.1562 11.75C16.1562 12.5612 15.4987 13.2188 14.6875 13.2188C13.8763 13.2188 13.2188 12.5612 13.2188 11.75V7.34375C13.2188 6.56468 13.5282 5.81751 14.0791 5.26662Z" fill="#3AA531"/>
<path fill-rule="evenodd" clip-rule="evenodd" d="M14.6875 27.9062C14.6875 27.0951 15.3451 26.4375 16.1562 26.4375H24.9688C25.7799 26.4375 26.4375 27.0951 26.4375 27.9062C26.4375 28.7174 25.7799 29.375 24.9688 29.375H16.1562C15.3451 29.375 14.6875 28.7174 14.6875 27.9062Z" fill="#3AA531"/>
<path fill-rule="evenodd" clip-rule="evenodd" d="M14.6875 33.7812C14.6875 32.9701 15.3451 32.3125 16.1562 32.3125H24.9688C25.7799 32.3125 26.4375 32.9701 26.4375 33.7812C26.4375 34.5924 25.7799 35.25 24.9688 35.25H16.1562C15.3451 35.25 14.6875 34.5924 14.6875 33.7812Z" fill="#3AA531"/>
</svg>
