<svg width="494" height="395" viewBox="0 0 494 395" fill="none" xmlns="http://www.w3.org/2000/svg">
<g filter="url(#filter0_d_227_5812)">
<rect x="4.37037" y="76.3704" width="199.259" height="165.185" rx="7.03704" stroke="#3AA531" stroke-width="0.740741"/>
<rect x="346.267" y="186.267" width="143.467" height="118.933" rx="5.06667" stroke="#3AA531" stroke-width="0.533333"/>
<rect x="149.5" y="0.5" width="235" height="385.259" rx="19.5" fill="#0C0C0C" stroke="#3AA531"/>
<rect x="57" y="108" width="67" height="4" fill="#4B4A4A"/>
<rect x="57" y="116" width="67" height="4" fill="#4B4A4A"/>
<circle cx="38" cy="114" r="8" fill="#4B4A4A"/>
<rect x="416.245" y="209.426" width="47.7555" height="2.85107" fill="#4B4A4A"/>
<rect x="416.245" y="215.128" width="47.7555" height="2.85107" fill="#4B4A4A"/>
<circle cx="402.702" cy="213.702" r="5.70215" fill="#4B4A4A"/>
<rect x="57" y="138" width="67" height="4" fill="#4B4A4A"/>
<rect x="57" y="146" width="67" height="4" fill="#4B4A4A"/>
<circle cx="38" cy="144" r="8" fill="#4B4A4A"/>
<rect x="416.245" y="230.809" width="47.7555" height="2.85107" fill="#4B4A4A"/>
<rect x="416.245" y="236.511" width="47.7555" height="2.85107" fill="#4B4A4A"/>
<circle cx="402.702" cy="235.085" r="5.70215" fill="#4B4A4A"/>
<rect x="57" y="168" width="67" height="4" fill="#4B4A4A"/>
<rect x="57" y="176" width="67" height="4" fill="#4B4A4A"/>
<circle cx="38" cy="174" r="8" fill="#4B4A4A"/>
<rect x="416.245" y="252.191" width="47.7555" height="2.85107" fill="#4B4A4A"/>
<rect x="416.245" y="257.893" width="47.7555" height="2.85107" fill="#4B4A4A"/>
<circle cx="402.702" cy="256.468" r="5.70215" fill="#4B4A4A"/>
<rect x="57" y="198" width="67" height="4" fill="#4B4A4A"/>
<rect x="57" y="206" width="67" height="4" fill="#4B4A4A"/>
<circle cx="38" cy="204" r="8" fill="#4B4A4A"/>
<rect x="416.245" y="273.574" width="47.7555" height="2.85107" fill="#4B4A4A"/>
<rect x="416.245" y="279.276" width="47.7555" height="2.85107" fill="#4B4A4A"/>
<circle cx="402.702" cy="277.851" r="5.70215" fill="#4B4A4A"/>
<rect x="149" y="180" width="236" height="169" fill="#4B4A4A"/>
<circle cx="170.5" cy="157.5" r="12.5" fill="#4B4A4A"/>
<circle cx="170.5" cy="53.5" r="12.5" fill="#4B4A4A"/>
<circle cx="171.5" cy="366.5" r="8.5" fill="#4B4A4A"/>
<circle cx="220.5" cy="366.5" r="8.5" fill="#4B4A4A"/>
<circle cx="269.5" cy="366.5" r="8.5" fill="#4B4A4A"/>
<circle cx="318.5" cy="366.5" r="8.5" fill="#4B4A4A"/>
<circle cx="367.5" cy="366.5" r="8.5" fill="#4B4A4A"/>
<circle cx="176" cy="101" r="18" fill="#4B4A4A"/>
<circle cx="222" cy="101" r="18" fill="#4B4A4A"/>
<circle cx="268" cy="101" r="18" fill="#4B4A4A"/>
<circle cx="314" cy="101" r="18" fill="#4B4A4A"/>
<circle cx="360" cy="101" r="18" fill="#4B4A4A"/>
<rect x="199" y="151" width="107" height="4" fill="#4B4A4A"/>
<rect x="199" y="50" width="107" height="4" fill="#4B4A4A"/>
<rect x="199" y="163" width="41" height="4" fill="#4B4A4A"/>
<rect x="191" y="20" width="41" height="4" fill="#4B4A4A"/>
<rect x="248" y="20" width="41" height="4" fill="#4B4A4A"/>
<rect x="305" y="20" width="41" height="4" fill="#4B4A4A"/>
</g>
<defs>
<filter id="filter0_d_227_5812" x="0" y="0" width="494" height="394.259" filterUnits="userSpaceOnUse" color-interpolation-filters="sRGB">
<feFlood flood-opacity="0" result="BackgroundImageFix"/>
<feColorMatrix in="SourceAlpha" type="matrix" values="0 0 0 0 0 0 0 0 0 0 0 0 0 0 0 0 0 0 127 0" result="hardAlpha"/>
<feOffset dy="4"/>
<feGaussianBlur stdDeviation="2"/>
<feComposite in2="hardAlpha" operator="out"/>
<feColorMatrix type="matrix" values="0 0 0 0 0 0 0 0 0 0 0 0 0 0 0 0 0 0 0.25 0"/>
<feBlend mode="normal" in2="BackgroundImageFix" result="effect1_dropShadow_227_5812"/>
<feBlend mode="normal" in="SourceGraphic" in2="effect1_dropShadow_227_5812" result="shape"/>
</filter>
</defs>
</svg>
