<svg width="18" height="17" viewBox="0 0 18 17" fill="none" xmlns="http://www.w3.org/2000/svg">
<path d="M14.6433 2.65019C13.1122 1.07519 11.0707 0.200195 8.91585 0.200195C4.43597 0.200195 0.806706 3.93353 0.806706 8.54186C0.806706 10.0002 1.20366 11.4585 1.88415 12.6835L0.75 17.0002L5.05976 15.8335C6.25061 16.4752 7.55488 16.8252 8.91585 16.8252C13.3957 16.8252 17.025 13.0919 17.025 8.48353C16.9683 6.3252 16.1744 4.22519 14.6433 2.65019ZM12.8287 11.5169C12.6585 11.9835 11.8646 12.4502 11.4677 12.5085C11.1274 12.5669 10.6738 12.5669 10.2201 12.4502C9.93659 12.3335 9.53963 12.2169 9.08598 11.9835C7.04451 11.1085 5.74025 9.00853 5.62683 8.83353C5.51342 8.71686 4.77622 7.72519 4.77622 6.67519C4.77622 5.62519 5.28658 5.15853 5.45671 4.92519C5.62683 4.69186 5.85366 4.69186 6.02378 4.69186C6.13719 4.69186 6.30731 4.69186 6.42073 4.69186C6.53414 4.69186 6.70427 4.63353 6.87439 5.04186C7.04451 5.45019 7.44146 6.5002 7.49817 6.55853C7.55488 6.67519 7.55488 6.79186 7.49817 6.90853C7.44146 7.0252 7.38475 7.14186 7.27134 7.25853C7.15792 7.37519 7.04451 7.55019 6.9878 7.60853C6.87439 7.72519 6.76098 7.84186 6.87439 8.01686C6.9878 8.25019 7.38476 8.89186 8.00854 9.47519C8.80244 10.1752 9.42622 10.4085 9.65305 10.5252C9.87988 10.6419 9.99329 10.5835 10.1067 10.4669C10.2201 10.3502 10.6171 9.88353 10.7305 9.6502C10.8439 9.41686 11.014 9.47519 11.1841 9.53353C11.3543 9.59186 12.375 10.1169 12.5451 10.2335C12.772 10.3502 12.8854 10.4085 12.9421 10.4669C12.9988 10.6419 12.9988 11.0502 12.8287 11.5169Z" fill="#4DCA5A"/>
</svg>
