<svg width="19" height="12" viewBox="0 0 19 12" fill="none" xmlns="http://www.w3.org/2000/svg">
<path d="M10.3114 11.5999C4.1102 11.5999 0.573158 7.3957 0.425781 0.399902H3.53203C3.63406 5.53464 5.92406 7.70961 7.73793 8.15806V0.399902H10.6628V4.82833C12.454 4.63774 14.3359 2.61972 14.9707 0.399902H17.8956C17.6564 1.55116 17.1795 2.64122 16.4948 3.6019C15.8101 4.56258 14.9324 5.37321 13.9164 5.98308C15.0504 6.54035 16.0521 7.3291 16.8553 8.2973C17.6584 9.2655 18.2448 10.3911 18.5758 11.5999H15.3562C15.0591 10.55 14.4552 9.61015 13.6203 8.89816C12.7854 8.18618 11.7566 7.73372 10.6628 7.5975V11.5999H10.3114V11.5999Z" fill="#328BF1"/>
</svg>
