<svg width="45" height="45" viewBox="0 0 45 45" fill="none" xmlns="http://www.w3.org/2000/svg">
<path fill-rule="evenodd" clip-rule="evenodd" d="M14.0625 5.625C13.2858 5.625 12.6562 6.2546 12.6562 7.03125V37.9688C12.6562 38.7454 13.2858 39.375 14.0625 39.375H30.9375C31.7142 39.375 32.3438 38.7454 32.3438 37.9688V7.03125C32.3438 6.2546 31.7142 5.625 30.9375 5.625H14.0625ZM9.84375 7.03125C9.84375 4.7013 11.7325 2.8125 14.0625 2.8125H30.9375C33.2675 2.8125 35.1562 4.7013 35.1562 7.03125V37.9688C35.1562 40.2987 33.2675 42.1875 30.9375 42.1875H14.0625C11.7325 42.1875 9.84375 40.2987 9.84375 37.9688V7.03125Z" fill="#3AA531"/>
<path fill-rule="evenodd" clip-rule="evenodd" d="M9.84375 9.84375C9.84375 9.0671 10.4733 8.4375 11.25 8.4375H33.75C34.5266 8.4375 35.1562 9.0671 35.1562 9.84375C35.1562 10.6204 34.5266 11.25 33.75 11.25H11.25C10.4733 11.25 9.84375 10.6204 9.84375 9.84375Z" fill="#3AA531"/>
<path fill-rule="evenodd" clip-rule="evenodd" d="M9.84375 35.1562C9.84375 34.3796 10.4733 33.75 11.25 33.75H33.75C34.5266 33.75 35.1562 34.3796 35.1562 35.1562C35.1562 35.9329 34.5266 36.5625 33.75 36.5625H11.25C10.4733 36.5625 9.84375 35.9329 9.84375 35.1562Z" fill="#3AA531"/>
</svg>
