<svg width="44" height="44" viewBox="0 0 44 44" fill="none" xmlns="http://www.w3.org/2000/svg">
<path fill-rule="evenodd" clip-rule="evenodd" d="M6.30546 7.68046C6.82118 7.16473 7.52065 6.875 8.25 6.875H35.75C36.4793 6.875 37.1788 7.16473 37.6945 7.68046C38.2103 8.19618 38.5 8.89566 38.5 9.625V19.7141C38.5 35.0949 25.4415 40.1852 22.8808 41.0365C22.3113 41.2405 21.6887 41.2405 21.1192 41.0365C18.5585 40.1852 5.5 35.0949 5.5 19.7141V9.625C5.5 8.89565 5.78973 8.19618 6.30546 7.68046ZM35.75 9.625L8.25 9.625L8.25 19.7141C8.25 33.1652 19.6277 37.6457 22 38.4314C24.3723 37.6457 35.75 33.1652 35.75 19.7141V9.625Z" fill="#3AA531"/>
<path fill-rule="evenodd" clip-rule="evenodd" d="M30.5574 16.9259C31.0816 17.4753 31.0611 18.3457 30.5116 18.8699L20.4226 28.4949C19.891 29.002 19.0546 29.0017 18.5235 28.4941L13.4875 23.6816C12.9385 23.1569 12.9188 22.2865 13.4434 21.7375C13.9681 21.1885 14.8385 21.1688 15.3875 21.6934L19.4743 25.5989L28.6134 16.8801C29.1628 16.3559 30.0332 16.3764 30.5574 16.9259Z" fill="#3AA531"/>
</svg>
