<svg width="170" height="33" viewBox="0 0 170 33" fill="none" xmlns="http://www.w3.org/2000/svg">
<rect y="0.378906" width="170" height="32.2414" fill="white"/>
<rect x="0.976562" y="1.35596" width="84.023" height="30.2874" fill="#0C0C0C"/>
<rect x="85.4885" y="1.84446" width="83.046" height="29.3103" fill="white" stroke="black" stroke-width="0.977011"/>
<path d="M8.02523 27.333V7.96702H20.1006V10.4823H10.9471V15.7777H15.278C16.7153 15.7777 17.9352 16.011 18.9375 16.4775C19.9462 16.944 20.7152 17.6027 21.2448 18.4538C21.7806 19.3048 22.0485 20.3072 22.0485 21.4608C22.0485 22.6144 21.7806 23.6325 21.2448 24.5151C20.7152 25.3977 19.9462 26.088 18.9375 26.586C17.9352 27.084 16.7153 27.333 15.278 27.333H8.02523ZM10.9471 24.8744H15.278C16.1101 24.8744 16.813 24.7105 17.3867 24.3827C17.9667 24.0549 18.4048 23.6294 18.7011 23.1062C19.0037 22.5829 19.155 22.0219 19.155 21.423C19.155 20.553 18.8209 19.806 18.1527 19.1819C17.4844 18.5515 16.5262 18.2363 15.278 18.2363H10.9471V24.8744ZM27.1359 27.333H24.0343L31.0034 7.96702H34.3792L41.3483 27.333H38.2468L32.7717 11.4847H32.6204L27.1359 27.333ZM27.656 19.7493H37.7172V22.2078H27.656V19.7493ZM50.6224 27.5978C49.3237 27.5978 48.1638 27.374 47.1425 26.9264C46.1276 26.4788 45.3238 25.8579 44.7312 25.0636C44.145 24.2629 43.8298 23.3363 43.7856 22.2835H46.7548C46.7927 22.8571 46.9849 23.3552 47.3317 23.7775C47.6847 24.1936 48.1449 24.5151 48.7122 24.7421C49.2796 24.969 49.91 25.0825 50.6034 25.0825C51.3662 25.0825 52.0408 24.9501 52.627 24.6853C53.2196 24.4205 53.683 24.0518 54.0171 23.579C54.3512 23.0999 54.5182 22.5482 54.5182 21.9241C54.5182 21.2748 54.3512 20.7043 54.0171 20.2126C53.6893 19.7146 53.207 19.3237 52.5703 19.0401C51.9399 18.7564 51.1771 18.6145 50.2819 18.6145H48.646V16.2316H50.2819C51.0006 16.2316 51.631 16.1024 52.1731 15.8439C52.7216 15.5854 53.1503 15.2261 53.4592 14.7659C53.7681 14.2994 53.9225 13.7541 53.9225 13.13C53.9225 12.5311 53.787 12.0111 53.5159 11.5698C53.2511 11.1222 52.8729 10.7723 52.3812 10.5202C51.8958 10.268 51.3221 10.1419 50.6602 10.1419C50.0298 10.1419 49.4404 10.2585 48.8919 10.4918C48.3498 10.7187 47.9085 11.0465 47.5681 11.4752C47.2276 11.8976 47.0448 12.4051 47.0196 12.9976H44.1922C44.2238 11.9512 44.5327 11.0308 45.1189 10.2365C45.7115 9.44217 46.4932 8.82122 47.464 8.37363C48.4349 7.92605 49.5128 7.70225 50.698 7.70225C51.9399 7.70225 53.0116 7.94496 53.9131 8.43037C54.8208 8.90947 55.5206 9.54933 56.0123 10.3499C56.5103 11.1506 56.7562 12.0268 56.7499 12.9787C56.7562 14.063 56.4536 14.9834 55.8421 15.7399C55.2369 16.4964 54.43 17.0039 53.4213 17.2623V17.4136C54.7074 17.609 55.7034 18.1197 56.4095 18.9455C57.1218 19.7713 57.4748 20.7957 57.4685 22.0187C57.4748 23.0841 57.1785 24.0392 56.5797 24.8839C55.9871 25.7286 55.177 26.3937 54.1495 26.8791C53.1219 27.3582 51.9462 27.5978 50.6224 27.5978ZM62.9436 27.333H59.842L66.8111 7.96702H70.1869L77.156 27.333H74.0544L68.5794 11.4847H68.4281L62.9436 27.333ZM63.4637 19.7493H73.5249V22.2078H63.4637V19.7493Z" fill="white"/>
<path d="M93.124 27.333V7.96702H105.199V10.4823H96.0459V15.7777H100.377C101.814 15.7777 103.034 16.011 104.036 16.4775C105.045 16.944 105.814 17.6027 106.344 18.4538C106.879 19.3048 107.147 20.3072 107.147 21.4608C107.147 22.6144 106.879 23.6325 106.344 24.5151C105.814 25.3977 105.045 26.088 104.036 26.586C103.034 27.084 101.814 27.333 100.377 27.333H93.124ZM96.0459 24.8744H100.377C101.209 24.8744 101.912 24.7105 102.485 24.3827C103.065 24.0549 103.504 23.6294 103.8 23.1062C104.102 22.5829 104.254 22.0219 104.254 21.423C104.254 20.553 103.92 19.806 103.251 19.1819C102.583 18.5515 101.625 18.2363 100.377 18.2363H96.0459V24.8744ZM112.235 27.333H109.133L116.102 7.96702H119.478L126.447 27.333H123.346L117.87 11.4847H117.719L112.235 27.333ZM112.755 19.7493H122.816V22.2078H112.755V19.7493ZM129.244 27.333V7.96702H132.166V16.3829H141.82V7.96702H144.752V27.333H141.82V18.8888H132.166V27.333H129.244ZM151.059 15.7777H156.279C157.716 15.7777 158.939 16.011 159.948 16.4775C160.956 16.944 161.725 17.6027 162.255 18.4538C162.791 19.3048 163.055 20.3072 163.049 21.4608C163.055 22.6144 162.791 23.6325 162.255 24.5151C161.725 25.3977 160.956 26.088 159.948 26.586C158.939 27.084 157.716 27.333 156.279 27.333H149.026V7.96702H151.957V24.8744H156.279C157.117 24.8744 157.823 24.7105 158.397 24.3827C158.977 24.0549 159.415 23.6294 159.711 23.1062C160.014 22.5829 160.165 22.0219 160.165 21.423C160.165 20.553 159.831 19.806 159.163 19.1819C158.494 18.5515 157.533 18.2363 156.279 18.2363H151.059V15.7777Z" fill="#0C0C0C"/>
</svg>
