<svg width="19" height="12" viewBox="0 0 19 12" fill="none" xmlns="http://www.w3.org/2000/svg">
<path fill-rule="evenodd" clip-rule="evenodd" d="M2.29233 11.6455C1.96872 11.5526 1.67344 11.3874 1.43142 11.1639C1.1894 10.9403 1.00774 10.665 0.901763 10.361C0.296191 8.78989 0.116762 2.22954 1.28305 0.934459C1.67121 0.513159 2.21924 0.253775 2.80819 0.212607C5.93698 -0.105856 15.6037 -0.0633941 16.7139 0.318762C17.0262 0.414658 17.3115 0.576205 17.5484 0.791298C17.7853 1.00639 17.9678 1.26945 18.0821 1.56077C18.7437 3.18494 18.7661 9.08713 17.9923 10.6476C17.7871 11.0538 17.4434 11.3828 17.0167 11.5818C15.8504 12.1338 3.83991 12.1231 2.29233 11.6455ZM7.26027 8.56697L12.8674 5.80695L7.26027 3.0257V8.56697Z" fill="#FF0000"/>
</svg>
